<svg width="15" height="8" viewBox="0 0 15 8" fill="none" xmlns="http://www.w3.org/2000/svg">
<path d="M7.24991 7.27173L0.687413 1.80298C0.557204 1.69881 0.482335 1.55558 0.462803 1.37329C0.443272 1.191 0.4921 1.03475 0.609288 0.904541C0.726475 0.774333 0.87296 0.699463 1.04874 0.679932C1.22452 0.6604 1.37752 0.709229 1.50773 0.826416L7.66007 5.9436L13.8124 0.826416C13.9426 0.709229 14.0956 0.6604 14.2714 0.679932C14.4472 0.699463 14.5937 0.774333 14.7109 0.904541C14.828 1.03475 14.8769 1.191 14.8573 1.37329C14.8378 1.55558 14.7629 1.69881 14.6327 1.80298L8.07023 7.27173C8.00512 7.32381 7.94002 7.36287 7.87491 7.38892C7.80981 7.41496 7.73819 7.42798 7.66007 7.42798C7.58194 7.42798 7.51033 7.41496 7.44523 7.38892C7.38012 7.36287 7.31502 7.32381 7.24991 7.27173Z" fill="#5C6672"/>
</svg>
