<svg width="13" height="12" viewBox="0 0 13 12" fill="none" xmlns="http://www.w3.org/2000/svg">
<path d="M2.95361 9.75V10.834H0.0239258V9.75H2.95361ZM5.9126 8.69531C5.98096 8.69531 6.04688 8.70752 6.11035 8.73193C6.17383 8.75635 6.23486 8.79297 6.29346 8.8418C6.33252 8.90039 6.3667 8.95898 6.396 9.01758C6.42529 9.07617 6.43994 9.14453 6.43994 9.22266V11.3613C6.43994 11.4297 6.42773 11.4956 6.40332 11.5591C6.37891 11.6226 6.34229 11.6836 6.29346 11.7422C6.23486 11.8008 6.17627 11.8398 6.11768 11.8594C6.05908 11.8789 5.99072 11.8887 5.9126 11.8887H3.77393C3.70557 11.8887 3.63721 11.8789 3.56885 11.8594C3.50049 11.8398 3.44189 11.8008 3.39307 11.7422C3.33447 11.6836 3.29053 11.625 3.26123 11.5664C3.23193 11.5078 3.21729 11.4395 3.21729 11.3613V9.22266C3.21729 9.1543 3.23193 9.08838 3.26123 9.0249C3.29053 8.96143 3.33447 8.90039 3.39307 8.8418C3.43213 8.80273 3.48584 8.76855 3.5542 8.73926C3.62256 8.70996 3.6958 8.69531 3.77393 8.69531H5.9126ZM7.23096 5.47266V6.55664H0.0239258V5.47266H7.23096ZM1.89893 1.19531V2.25H0.0239258V1.19531H1.89893ZM12.856 9.75V10.834H6.70361V9.75H12.856ZM4.82861 0.111328C4.89697 0.111328 4.96289 0.125977 5.02637 0.155273C5.08984 0.18457 5.15088 0.228516 5.20947 0.287109C5.26807 0.326172 5.30713 0.375 5.32666 0.433594C5.34619 0.492188 5.35596 0.560547 5.35596 0.638672V2.80664C5.35596 2.875 5.34619 2.93848 5.32666 2.99707C5.30713 3.05566 5.26807 3.10938 5.20947 3.1582C5.15088 3.2168 5.09229 3.26074 5.03369 3.29004C4.9751 3.31934 4.90674 3.33398 4.82861 3.33398H2.68994C2.62158 3.33398 2.55566 3.31934 2.49219 3.29004C2.42871 3.26074 2.36768 3.2168 2.30908 3.1582C2.27002 3.11914 2.23584 3.07031 2.20654 3.01172C2.17725 2.95312 2.1626 2.88477 2.1626 2.80664V0.638672C2.1626 0.570312 2.1748 0.506836 2.19922 0.448242C2.22363 0.389648 2.26025 0.335938 2.30908 0.287109C2.36768 0.228516 2.42627 0.18457 2.48486 0.155273C2.54346 0.125977 2.61182 0.111328 2.68994 0.111328H4.82861ZM10.1899 4.38867C10.2583 4.38867 10.3242 4.40332 10.3877 4.43262C10.4512 4.46191 10.5122 4.50586 10.5708 4.56445C10.6099 4.60352 10.644 4.65723 10.6733 4.72559C10.7026 4.79395 10.7173 4.86719 10.7173 4.94531V7.08398C10.7173 7.15234 10.7051 7.21826 10.6807 7.28174C10.6562 7.34521 10.6196 7.40625 10.5708 7.46484C10.5122 7.50391 10.4536 7.53809 10.395 7.56738C10.3364 7.59668 10.2681 7.61133 10.1899 7.61133H8.05127C7.98291 7.61133 7.91699 7.59912 7.85352 7.57471C7.79004 7.55029 7.729 7.51367 7.67041 7.46484C7.61182 7.40625 7.57275 7.34766 7.55322 7.28906C7.53369 7.23047 7.52393 7.16211 7.52393 7.08398V4.94531C7.52393 4.87695 7.53369 4.80859 7.55322 4.74023C7.57275 4.67188 7.61182 4.61328 7.67041 4.56445C7.729 4.50586 7.7876 4.46191 7.84619 4.43262C7.90479 4.40332 7.97314 4.38867 8.05127 4.38867H10.1899ZM12.856 5.47266V6.55664H10.981V5.47266H12.856ZM12.856 1.19531V2.25H5.64893V1.19531H12.856Z" fill="#777777"/>
</svg>
