<svg width="20" height="20" viewBox="0 0 20 20" fill="none" xmlns="http://www.w3.org/2000/svg">
<path d="M15.34 16.54C15.1027 16.54 14.8707 16.4696 14.6733 16.3378C14.476 16.2059 14.3222 16.0185 14.2313 15.7992C14.1405 15.5799 14.1168 15.3387 14.1631 15.1059C14.2094 14.8731 14.3236 14.6593 14.4915 14.4915C14.6593 14.3236 14.8731 14.2094 15.1059 14.1631C15.3387 14.1168 15.5799 14.1405 15.7992 14.2313C16.0185 14.3222 16.2059 14.476 16.3378 14.6733C16.4696 14.8707 16.54 15.1027 16.54 15.34C16.54 15.6583 16.4136 15.9635 16.1885 16.1885C15.9635 16.4136 15.6583 16.54 15.34 16.54ZM19.94 14.12C19.9206 14.9497 19.7652 15.7706 19.48 16.55C19.2257 17.2169 18.83 17.8207 18.32 18.32C17.8248 18.8326 17.2196 19.2258 16.55 19.47C15.7727 19.7638 14.9508 19.9228 14.12 19.94C13.06 20 12.72 20 10 20C7.28 20 6.94 20 5.88 19.94C5.04915 19.9228 4.22734 19.7638 3.45 19.47C2.78168 19.2234 2.17693 18.8304 1.68 18.32C1.16743 17.8248 0.774176 17.2196 0.53 16.55C0.236161 15.7727 0.07721 14.9508 0.0599999 14.12C-5.58794e-08 13.06 0 12.72 0 10C0 7.28 -5.58794e-08 6.94 0.0599999 5.88C0.07721 5.04915 0.236161 4.22734 0.53 3.45C0.774176 2.78044 1.16743 2.17518 1.68 1.68C2.17693 1.16956 2.78168 0.776649 3.45 0.530001C4.22734 0.236162 5.04915 0.0772095 5.88 0.0599995C6.94 0 7.28 0 10 0C12.72 0 13.06 0 14.12 0.0599995C14.9508 0.0772095 15.7727 0.236162 16.55 0.530001C17.2196 0.774178 17.8248 1.16743 18.32 1.68C18.8322 2.17742 19.2283 2.78181 19.48 3.45C19.7652 4.2294 19.9206 5.0503 19.94 5.88C19.94 6.94 20 7.28 20 10C20 12.72 20 13.06 19.94 14.12ZM18.14 6C18.1327 5.36523 18.0178 4.7363 17.8 4.14C17.6403 3.70481 17.3839 3.31158 17.05 2.99C16.7256 2.65949 16.3332 2.40357 15.9 2.24C15.3037 2.02225 14.6748 1.90728 14.04 1.9C13.04 1.85 12.67 1.84 10.04 1.84C7.41 1.84 7.04 1.84 6.04 1.9C5.38089 1.88766 4.72459 1.98915 4.1 2.2C3.68578 2.37192 3.31136 2.62721 3 2.95C2.66809 3.27125 2.41484 3.66481 2.26 4.1C2.01586 4.70485 1.88044 5.34806 1.86 6C1.86 7 1.8 7.37 1.8 10C1.8 12.63 1.8 13 1.86 14C1.86448 14.6489 1.98295 15.2921 2.21 15.9C2.38605 16.3221 2.65627 16.6983 3 17C3.30381 17.3438 3.67929 17.6169 4.1 17.8C4.70955 18.02 5.352 18.1349 6 18.14C7 18.14 7.37 18.2 10 18.2C12.63 18.2 13 18.2 14 18.14C14.6348 18.1327 15.2637 18.0178 15.86 17.8C16.3144 17.6313 16.7223 17.3572 17.05 17C17.3777 16.6928 17.6338 16.3173 17.8 15.9C18.0223 15.2911 18.1373 14.6482 18.14 14C18.19 13 18.2 12.63 18.2 10C18.2 7.37 18.19 7 18.14 6ZM10 15.13C8.98581 15.128 7.99496 14.8255 7.15265 14.2606C6.31035 13.6957 5.65438 12.8938 5.26763 11.9562C4.88089 11.0187 4.78072 9.98753 4.97979 8.99307C5.17886 7.99861 5.66824 7.08546 6.38608 6.36902C7.10392 5.65258 8.01801 5.16498 9.01286 4.96785C10.0077 4.77072 11.0387 4.87289 11.9755 5.26146C12.9123 5.65003 13.7129 6.30756 14.2761 7.15097C14.8394 7.99437 15.14 8.98581 15.14 10C15.1413 10.6749 15.0092 11.3434 14.7512 11.967C14.4933 12.5907 14.1146 13.1572 13.6369 13.6339C13.1592 14.1107 12.5919 14.4883 11.9678 14.7451C11.3436 15.0018 10.6749 15.1326 10 15.13ZM10 6.67C9.34139 6.67 8.69757 6.8653 8.14995 7.23121C7.60234 7.59711 7.17552 8.11719 6.92348 8.72566C6.67144 9.33414 6.6055 10.0037 6.73398 10.6497C6.86247 11.2956 7.17963 11.889 7.64533 12.3547C8.11104 12.8204 8.70439 13.1375 9.35035 13.266C9.99631 13.3945 10.6659 13.3286 11.2743 13.0765C11.8828 12.8245 12.4029 12.3977 12.7688 11.85C13.1347 11.3024 13.33 10.6586 13.33 10C13.33 9.5627 13.2439 9.12968 13.0765 8.72566C12.9092 8.32165 12.6639 7.95455 12.3547 7.64533C12.0454 7.33611 11.6784 7.09083 11.2743 6.92348C10.8703 6.75613 10.4373 6.67 10 6.67Z" fill="white"/>
</svg>
