<svg width="17" height="17" viewBox="0 0 17 17" fill="none" xmlns="http://www.w3.org/2000/svg">
<path d="M16.9972 6.70703C16.9972 6.77734 16.9738 6.85352 16.9269 6.93555C16.88 7.01758 16.8097 7.10547 16.7159 7.19922L13.0948 10.75L13.9386 15.7773C13.9386 15.7891 13.9386 15.8125 13.9386 15.8477C13.9386 15.8828 13.9386 15.918 13.9386 15.9531C13.9386 16.0234 13.9298 16.0908 13.9122 16.1553C13.8947 16.2197 13.8683 16.2695 13.8331 16.3047C13.798 16.3516 13.7599 16.3926 13.7189 16.4277C13.6779 16.4629 13.6222 16.4805 13.5519 16.4805C13.4816 16.4805 13.4113 16.4658 13.3409 16.4365C13.2706 16.4072 13.2003 16.375 13.13 16.3398L8.63 13.9844L4.13 16.3398C4.05969 16.375 3.98938 16.4072 3.91907 16.4365C3.84875 16.4658 3.77844 16.4805 3.70813 16.4805C3.63782 16.4805 3.57629 16.4658 3.52356 16.4365C3.47083 16.4072 3.42688 16.3633 3.39172 16.3047C3.35657 16.2695 3.3302 16.2197 3.31262 16.1553C3.29504 16.0908 3.28625 16.0234 3.28625 15.9531C3.28625 15.9414 3.28625 15.918 3.28625 15.8828C3.28625 15.8477 3.29797 15.8125 3.32141 15.7773L4.16516 10.75L0.508911 7.19922C0.438599 7.09375 0.380005 7.00293 0.33313 6.92676C0.286255 6.85059 0.262817 6.77734 0.262817 6.70703C0.262817 6.58984 0.312622 6.49023 0.412231 6.4082C0.511841 6.32617 0.649536 6.27344 0.825317 6.25L5.88782 5.51172L8.13782 0.941406C8.20813 0.800781 8.28137 0.695312 8.35754 0.625C8.43372 0.554688 8.52454 0.519531 8.63 0.519531C8.73547 0.519531 8.82629 0.554688 8.90247 0.625C8.97864 0.695312 9.05188 0.800781 9.12219 0.941406L11.3722 5.51172L16.4347 6.25C16.6105 6.26172 16.7482 6.30859 16.8478 6.39062C16.9474 6.47266 16.9972 6.57812 16.9972 6.70703Z" fill="#E9583B"/>
</svg>
