<svg width="13" height="13" viewBox="0 0 13 13" fill="none" xmlns="http://www.w3.org/2000/svg">
<path d="M6.5 0.203125C5.62826 0.203125 4.81152 0.368164 4.0498 0.698242C3.28809 1.02832 2.62158 1.479 2.05029 2.05029C1.479 2.62158 1.02832 3.28809 0.698242 4.0498C0.368164 4.81152 0.203125 5.62826 0.203125 6.5C0.203125 7.37174 0.368164 8.18848 0.698242 8.9502C1.02832 9.71191 1.479 10.3784 2.05029 10.9497C2.62158 11.521 3.28809 11.9717 4.0498 12.3018C4.81152 12.6318 5.62826 12.7969 6.5 12.7969C7.37174 12.7969 8.18848 12.6318 8.9502 12.3018C9.71191 11.9717 10.3784 11.521 10.9497 10.9497C11.521 10.3784 11.9717 9.71191 12.3018 8.9502C12.6318 8.18848 12.7969 7.37174 12.7969 6.5C12.7969 5.62826 12.6318 4.81152 12.3018 4.0498C11.9717 3.28809 11.521 2.62158 10.9497 2.05029C10.3784 1.479 9.71191 1.02832 8.9502 0.698242C8.18848 0.368164 7.37174 0.203125 6.5 0.203125ZM6.5 11.54C5.80599 11.54 5.1543 11.4089 4.54492 11.1465C3.92708 10.8757 3.39176 10.5138 2.93896 10.061C2.48617 9.60824 2.12435 9.07292 1.85352 8.45508C1.59115 7.8457 1.45996 7.19401 1.45996 6.5C1.45996 5.80599 1.59115 5.1543 1.85352 4.54492C2.12435 3.92708 2.48617 3.39176 2.93896 2.93896C3.39176 2.48617 3.92708 2.12435 4.54492 1.85352C5.1543 1.59115 5.80599 1.45996 6.5 1.45996C7.19401 1.45996 7.8457 1.59115 8.45508 1.85352C9.07292 2.12435 9.60824 2.48617 10.061 2.93896C10.5138 3.39176 10.8757 3.92708 11.1465 4.54492C11.4089 5.1543 11.54 5.80599 11.54 6.5C11.54 7.19401 11.4089 7.8457 11.1465 8.45508C10.8757 9.07292 10.5138 9.60824 10.061 10.061C9.60824 10.5138 9.07292 10.8757 8.45508 11.1465C7.8457 11.4089 7.19401 11.54 6.5 11.54ZM7.00781 6.5C7.00781 6.71159 6.94645 6.89144 6.82373 7.03955C6.70101 7.18766 6.55078 7.26172 6.37305 7.26172C6.20378 7.26172 6.05566 7.18766 5.92871 7.03955C5.80176 6.89144 5.73828 6.71159 5.73828 6.5V2.7168C5.73828 2.51367 5.80176 2.33805 5.92871 2.18994C6.05566 2.04183 6.20378 1.96777 6.37305 1.96777C6.55078 1.96777 6.70101 2.04183 6.82373 2.18994C6.94645 2.33805 7.00781 2.51367 7.00781 2.7168V6.5ZM6.13184 7.27441C5.9541 7.16439 5.83773 7.01416 5.78271 6.82373C5.7277 6.6333 5.75098 6.46191 5.85254 6.30957C5.94564 6.14876 6.08952 6.05355 6.28418 6.02393C6.47884 5.9943 6.66504 6.03451 6.84277 6.14453L10.0547 8.1377C10.224 8.24772 10.3382 8.39795 10.3975 8.58838C10.4567 8.77881 10.4355 8.9502 10.334 9.10254C10.2409 9.26335 10.097 9.36068 9.90234 9.39453C9.70768 9.42839 9.52148 9.38607 9.34375 9.26758L6.13184 7.27441Z" fill="#027AD0"/>
</svg>
